<?xml version="1.0" encoding="utf-8"?>
<!-- Generator: Adobe Illustrator 22.1.0, SVG Export Plug-In . SVG Version: 6.00 Build 0)  -->
<svg version="1.1" id="Слой_1" xmlns="http://www.w3.org/2000/svg" xmlns:xlink="http://www.w3.org/1999/xlink" x="0px" y="0px"
	 viewBox="0 0 133 29" style="enable-background:new 0 0 133 29;" xml:space="preserve">
<style type="text/css">
	.st0{fill:#949494;}
</style>
<g>
	<g>
		<g>
			<path class="st0" d="M28.9,23.5h-2.5c-0.1-0.5-0.2-1.3-0.3-1.9c-0.8,1.6-2.5,2.1-4.6,2.1c-4.3,0-6.6-3.6-6.6-8.4
				c0-4.7,2.7-8.5,7.5-8.5c3.9,0,5.9,2.2,6.3,4.9h-3.3c-0.3-1-1-2.2-3.3-2.2c-2.9,0-3.9,2.7-3.9,5.9c0,3.1,1.1,5.7,3.9,5.7
				c2.5,0,3.2-1.7,3.2-3.8v-0.1h-3.4v-2.8h6.8C28.9,20.3,28.9,22.9,28.9,23.5z"/>
			<path class="st0" d="M35.3,6v6.5c0.6-1,1.7-1.7,3.4-1.7c2.2,0,3.9,1.2,3.9,4.5v8.2h-3.2v-7.7c0-1.3-0.4-2.3-2-2.3
				c-1.6,0-2.2,1.1-2.2,3.1v6.9H32V6H35.3z"/>
			<path class="st0" d="M56.8,17.1c0,3.6-1.7,6.6-6,6.6c-4.3,0-5.8-3.2-5.8-6.6c0-3.1,1.8-6.3,6-6.3C55,10.8,56.8,13.7,56.8,17.1z
				 M48.3,17.1c0,2.7,0.9,4.1,2.7,4.1c1.6,0,2.5-1.4,2.5-4c0-2.5-0.8-3.7-2.6-3.7C49.2,13.3,48.3,14.8,48.3,17.1z"/>
			<path class="st0" d="M61.4,19.6c0.1,1.1,0.9,1.7,2.1,1.7c1.2,0,1.8-0.4,1.8-1.2c0-0.8-0.7-1.1-2.6-1.7c-3.3-0.9-4.1-2.1-4.1-3.9
				c0-1.6,1-3.8,4.7-3.8c3.3,0,4.7,1.7,4.8,3.8H65c-0.1-0.7-0.5-1.4-1.8-1.4c-0.9,0-1.4,0.4-1.4,1.1c0,0.7,0.5,1,2.3,1.4
				c3.4,0.9,4.4,2.1,4.4,4.1c0,2.5-2.1,3.9-5.1,3.9c-3,0-5-1.4-5.2-4H61.4z"/>
			<path class="st0" d="M69.3,11h1.8V7.7h3.2V11h2.2v2.5h-2.2v6.4c0,0.9,0.2,1.2,1.2,1.2c0.3,0,0.4,0,0.7-0.1v2.3
				c-0.6,0.2-1.5,0.2-2,0.2c-2.4,0-3.2-1-3.2-3.3v-6.7h-1.8V11z"/>
			<path class="st0" d="M84.6,7H88v6.5h6V7h3.4v16.4H94v-7.2h-6v7.2h-3.4V7z"/>
			<path class="st0" d="M111.8,17.1c0,3.6-1.7,6.6-6,6.6c-4.3,0-5.8-3.2-5.8-6.6c0-3.1,1.8-6.3,6-6.3
				C110,10.8,111.8,13.7,111.8,17.1z M103.3,17.1c0,2.7,0.9,4.1,2.7,4.1c1.6,0,2.5-1.4,2.5-4c0-2.5-0.8-3.7-2.6-3.7
				C104.2,13.3,103.3,14.8,103.3,17.1z"/>
			<path class="st0" d="M116.4,19.6c0.1,1.1,0.9,1.7,2.1,1.7c1.2,0,1.8-0.4,1.8-1.2c0-0.8-0.7-1.1-2.6-1.7c-3.3-0.9-4.1-2.1-4.1-3.9
				c0-1.6,1-3.8,4.7-3.8c3.3,0,4.7,1.7,4.8,3.8H120c-0.1-0.7-0.5-1.4-1.8-1.4c-0.9,0-1.4,0.4-1.4,1.1c0,0.7,0.5,1,2.3,1.4
				c3.4,0.9,4.4,2.1,4.4,4.1c0,2.5-2.1,3.9-5.1,3.9c-3,0-5-1.4-5.2-4H116.4z"/>
			<path class="st0" d="M124.3,11h1.8V7.7h3.2V11h2.2v2.5h-2.2v6.4c0,0.9,0.2,1.2,1.2,1.2c0.3,0,0.4,0,0.7-0.1v2.3
				c-0.6,0.2-1.5,0.2-2,0.2c-2.4,0-3.2-1-3.2-3.3v-6.7h-1.8V11z"/>
		</g>
	</g>
</g>
<path class="st0" d="M23.6,25.9c-0.4,0-0.7,0.1-1.1,0.1C16.7,26,12,21.1,12,15S16.7,4,22.5,4c0.1,0,0.2,0,0.3,0c-2.1-2.5-5-4-8.3-4
	C8.1,0,3,5.8,3,13c0,3.2,1,6.2,2.8,8.4C4.3,24.4,2.2,26.8,0,28l7-1c0.7,0.7,1.3,1.3,2,2l3-2l3,2l3-2c2,2,4,2,6,2
	c1.7-0.7,2.7-1.3,3-2C25.7,27.3,24.5,26.9,23.6,25.9z M9.5,12C8.1,12,7,10.9,7,9.5C7,8.1,8.1,7,9.5,7S12,8.1,12,9.5
	C12,10.9,10.9,12,9.5,12z"/>
</svg>
